HIERARCHY
ROOT Hips
{
	OFFSET 0.000000 71.427986 0.000000
	CHANNELS 6 Xposition Yposition Zposition Xrotation Yrotation Zrotation
	JOINT Pelvis
	{
		OFFSET 0.000000 0.000000 0.000000
		CHANNELS 3 Xrotation Yrotation Zrotation
		JOINT LeftUpLeg
		{
			OFFSET 6.797100 -2.508499 -1.318700
			CHANNELS 3 Xrotation Yrotation Zrotation
			JOINT LeftLeg
			{
				OFFSET 0.069008 -29.241863 0.690200
				CHANNELS 3 Xrotation Yrotation Zrotation
				JOINT LeftFoot
				{
					OFFSET -0.069008 -29.568123 -0.266800
					CHANNELS 3 Xrotation Yrotation Zrotation
					JOINT LeftToeBase
					{
						OFFSET 3.145500 -8.631000 16.059900
						CHANNELS 3 Xrotation Yrotation Zrotation
						End Site
						{
							OFFSET 0.000000 18.501587 0.000000
						}
					}
				}
			}
			JOINT Left_ShortSleeve
			{
				OFFSET 0.265923 -10.480953 1.153800
				CHANNELS 3 Xrotation Yrotation Zrotation
				End Site
				{
					OFFSET 1.725763 19.823879 0.000000
				}
			}
		}
		JOINT RightUpLeg
		{
			OFFSET -6.797100 -2.508499 -1.318700
			CHANNELS 3 Xrotation Yrotation Zrotation
			JOINT RightLeg
			{
				OFFSET -0.082453 -29.241932 0.688000
				CHANNELS 3 Xrotation Yrotation Zrotation
				JOINT RightFoot
				{
					OFFSET 0.082453 -29.568058 -0.264600
					CHANNELS 3 Xrotation Yrotation Zrotation
					JOINT RightToeBase
					{
						OFFSET -3.115300 -8.682800 16.113400
						CHANNELS 3 Xrotation Yrotation Zrotation
						End Site
						{
							OFFSET 0.000000 18.567114 0.000000
						}
					}
				}
			}
			JOINT Right_ShortSleeve
			{
				OFFSET -0.265923 -10.480953 1.153800
				CHANNELS 3 Xrotation Yrotation Zrotation
				End Site
				{
					OFFSET -1.725766 19.823910 0.000000
				}
			}
		}
	}
	JOINT Spine
	{
		OFFSET 0.000000 13.368103 0.470500
		CHANNELS 3 Xrotation Yrotation Zrotation
		JOINT Spine1
		{
			OFFSET 0.147000 13.837402 0.538800
			CHANNELS 3 Xrotation Yrotation Zrotation
			JOINT Spine2
			{
				OFFSET 0.168000 16.242897 -1.435500
				CHANNELS 3 Xrotation Yrotation Zrotation
				JOINT Neck
				{
					OFFSET 0.217200 18.631500 -1.679100
					CHANNELS 3 Xrotation Yrotation Zrotation
					JOINT Head
					{
						OFFSET 0.000000 6.599396 1.385900
						CHANNELS 3 Xrotation Yrotation Zrotation
						JOINT Hat
						{
							OFFSET -0.532200 27.220596 -10.096100
							CHANNELS 3 Xrotation Yrotation Zrotation
							End Site
							{
								OFFSET 0.000000 22.029861 0.000000
							}
						}
						JOINT HairD
						{
							OFFSET -10.777400 17.437393 -1.325900
							CHANNELS 3 Xrotation Yrotation Zrotation
							JOINT HairD1
							{
								OFFSET -3.290299 -11.051193 1.062200
								CHANNELS 3 Xrotation Yrotation Zrotation
								End Site
								{
									OFFSET 0.000000 11.579437 0.000000
								}
							}
						}
						JOINT HairB
						{
							OFFSET -10.777400 17.437393 1.467900
							CHANNELS 3 Xrotation Yrotation Zrotation
							JOINT HairB1
							{
								OFFSET -1.561200 -12.956299 3.590200
								CHANNELS 3 Xrotation Yrotation Zrotation
								End Site
								{
									OFFSET 0.000000 13.534866 0.000000
								}
							}
						}
						JOINT HairA
						{
							OFFSET 9.713100 17.437393 1.467900
							CHANNELS 3 Xrotation Yrotation Zrotation
							JOINT HairA1
							{
								OFFSET 1.561200 -12.956299 3.590200
								CHANNELS 3 Xrotation Yrotation Zrotation
								End Site
								{
									OFFSET 0.000000 13.534866 0.000000
								}
							}
						}
						JOINT HairC
						{
							OFFSET 9.713100 17.437393 -1.325900
							CHANNELS 3 Xrotation Yrotation Zrotation
							JOINT HairC1
							{
								OFFSET 3.290300 -11.051193 1.062200
								CHANNELS 3 Xrotation Yrotation Zrotation
								End Site
								{
									OFFSET 0.000000 11.579437 0.000000
								}
							}
						}
					}
				}
				JOINT LeftShoulder
				{
					OFFSET 5.101800 15.108002 -2.763700
					CHANNELS 3 Xrotation Yrotation Zrotation
					JOINT LeftArm
					{
						OFFSET 9.825497 2.506317 -1.597400
						CHANNELS 3 Xrotation Yrotation Zrotation
						JOINT LeftForeArm
						{
							OFFSET 21.966244 0.000000 0.000000
							CHANNELS 3 Xrotation Yrotation Zrotation
							JOINT LeftHand
							{
								OFFSET 33.879036 0.000000 0.000000
								CHANNELS 3 Xrotation Yrotation Zrotation
								JOINT LeftHandThumb1
								{
									OFFSET 6.715286 -2.359680 3.363841
									CHANNELS 3 Xrotation Yrotation Zrotation
									JOINT LeftHandThumb2
									{
										OFFSET 2.507072 -1.447464 1.447461
										CHANNELS 3 Xrotation Yrotation Zrotation
										JOINT LeftHandThumb3
										{
											OFFSET 2.898338 -1.673355 1.673357
											CHANNELS 3 Xrotation Yrotation Zrotation
											End Site
											{
												OFFSET -0.295959 3.727692 -0.131651
											}
										}
									}
								}
								JOINT LeftHandIndex1
								{
									OFFSET 14.190811 -0.254547 3.840278
									CHANNELS 3 Xrotation Yrotation Zrotation
									JOINT LeftHandIndex2
									{
										OFFSET 3.551727 0.000000 -0.000000
										CHANNELS 3 Xrotation Yrotation Zrotation
										JOINT LeftHandIndex3
										{
											OFFSET 2.894196 0.000000 0.000000
											CHANNELS 3 Xrotation Yrotation Zrotation
											End Site
											{
												OFFSET -1.000603 2.690872 0.366626
											}
										}
									}
								}
								JOINT LeftHandMiddle1
								{
									OFFSET 13.776489 0.000000 0.000000
									CHANNELS 3 Xrotation Yrotation Zrotation
									JOINT LeftHandMiddle2
									{
										OFFSET 3.438232 0.000000 0.000000
										CHANNELS 3 Xrotation Yrotation Zrotation
										JOINT LeftHandMiddle3
										{
											OFFSET 3.691551 0.000000 0.000000
											CHANNELS 3 Xrotation Yrotation Zrotation
											End Site
											{
												OFFSET -1.082298 3.499527 0.457670
											}
										}
									}
								}
								JOINT LeftHandRing1
								{
									OFFSET 13.966164 -0.268127 -3.067488
									CHANNELS 3 Xrotation Yrotation Zrotation
									JOINT LeftHandRing2
									{
										OFFSET 3.162567 0.000000 0.000000
										CHANNELS 3 Xrotation Yrotation Zrotation
										JOINT LeftHandRing3
										{
											OFFSET 3.324348 0.000000 0.000000
											CHANNELS 3 Xrotation Yrotation Zrotation
											End Site
											{
												OFFSET -0.861900 3.184998 0.405154
											}
										}
									}
								}
								JOINT LeftHandPinky1
								{
									OFFSET 13.131393 -0.168503 -5.746925
									CHANNELS 3 Xrotation Yrotation Zrotation
									JOINT LeftHandPinky2
									{
										OFFSET 2.849182 0.000000 0.000000
										CHANNELS 3 Xrotation Yrotation Zrotation
										JOINT LeftHandPinky3
										{
											OFFSET 2.805038 0.000000 0.000000
											CHANNELS 3 Xrotation Yrotation Zrotation
											End Site
											{
												OFFSET -0.882500 2.642609 0.325652
											}
										}
									}
								}
							}
							JOINT Left_Sleeve
							{
								OFFSET 6.592125 -0.646545 0.805568
								CHANNELS 3 Xrotation Yrotation Zrotation
								End Site
								{
									OFFSET -0.000179 20.275787 -0.000000
								}
							}
						}
					}
				}
				JOINT RightShoulder
				{
					OFFSET -5.731700 15.108002 -2.763700
					CHANNELS 3 Xrotation Yrotation Zrotation
					JOINT RightArm
					{
						OFFSET -9.825497 2.506317 -1.597400
						CHANNELS 3 Xrotation Yrotation Zrotation
						JOINT RightForeArm
						{
							OFFSET -21.966242 0.000000 0.000000
							CHANNELS 3 Xrotation Yrotation Zrotation
							JOINT RightHand
							{
								OFFSET -33.879032 0.000000 0.000000
								CHANNELS 3 Xrotation Yrotation Zrotation
								JOINT RightHandThumb1
								{
									OFFSET -6.715286 -2.359680 3.363841
									CHANNELS 3 Xrotation Yrotation Zrotation
									JOINT RightHandThumb2
									{
										OFFSET -2.507072 -1.447464 1.447461
										CHANNELS 3 Xrotation Yrotation Zrotation
										JOINT RightHandThumb3
										{
											OFFSET -2.898338 -1.673355 1.673357
											CHANNELS 3 Xrotation Yrotation Zrotation
											End Site
											{
												OFFSET 0.295959 3.727692 -0.131651
											}
										}
									}
								}
								JOINT RightHandIndex1
								{
									OFFSET -14.190811 -0.254547 3.840278
									CHANNELS 3 Xrotation Yrotation Zrotation
									JOINT RightHandIndex2
									{
										OFFSET -3.551727 0.000000 -0.000000
										CHANNELS 3 Xrotation Yrotation Zrotation
										JOINT RightHandIndex3
										{
											OFFSET -2.894196 0.000000 0.000000
											CHANNELS 3 Xrotation Yrotation Zrotation
											End Site
											{
												OFFSET 1.000603 2.690872 0.366626
											}
										}
									}
								}
								JOINT RightHandMiddle1
								{
									OFFSET -13.776489 0.000000 0.000000
									CHANNELS 3 Xrotation Yrotation Zrotation
									JOINT RightHandMiddle2
									{
										OFFSET -3.438232 0.000000 0.000000
										CHANNELS 3 Xrotation Yrotation Zrotation
										JOINT RightHandMiddle3
										{
											OFFSET -3.691551 0.000000 0.000000
											CHANNELS 3 Xrotation Yrotation Zrotation
											End Site
											{
												OFFSET 1.082298 3.499527 0.457670
											}
										}
									}
								}
								JOINT RightHandRing1
								{
									OFFSET -13.966164 -0.268127 -3.067488
									CHANNELS 3 Xrotation Yrotation Zrotation
									JOINT RightHandRing2
									{
										OFFSET -3.162567 0.000000 0.000000
										CHANNELS 3 Xrotation Yrotation Zrotation
										JOINT RightHandRing3
										{
											OFFSET -3.324348 0.000000 0.000000
											CHANNELS 3 Xrotation Yrotation Zrotation
											End Site
											{
												OFFSET 0.861900 3.184998 0.405154
											}
										}
									}
								}
								JOINT RightHandPinky1
								{
									OFFSET -13.131393 -0.168503 -5.746925
									CHANNELS 3 Xrotation Yrotation Zrotation
									JOINT RightHandPinky2
									{
										OFFSET -2.849182 0.000000 0.000000
										CHANNELS 3 Xrotation Yrotation Zrotation
										JOINT RightHandPinky3
										{
											OFFSET -2.805038 0.000000 0.000000
											CHANNELS 3 Xrotation Yrotation Zrotation
											End Site
											{
												OFFSET 0.882500 2.642609 0.325652
											}
										}
									}
								}
							}
							JOINT Right_Sleeve
							{
								OFFSET -6.592125 -0.646545 0.805568
								CHANNELS 3 Xrotation Yrotation Zrotation
								End Site
								{
									OFFSET 0.000179 20.275787 -0.000000
								}
							}
						}
					}
				}
				JOINT Bind_Right_JacketString
				{
					OFFSET -3.534800 11.969597 7.200700
					CHANNELS 3 Xrotation Yrotation Zrotation
					JOINT Bind_Right_JacketString1
					{
						OFFSET -0.319900 -6.102600 2.794100
						CHANNELS 3 Xrotation Yrotation Zrotation
						End Site
						{
							OFFSET 0.000000 6.719452 0.000000
						}
					}
				}
				JOINT Bind_Left_JacketString
				{
					OFFSET 2.904800 11.969597 7.200700
					CHANNELS 3 Xrotation Yrotation Zrotation
					JOINT Bind_Left_JacketString1
					{
						OFFSET 0.364800 -5.904503 3.186800
						CHANNELS 3 Xrotation Yrotation Zrotation
						End Site
						{
							OFFSET 0.000000 6.719513 0.000000
						}
					}
				}
				JOINT HairE
				{
					OFFSET 5.915200 17.612701 -11.592200
					CHANNELS 3 Xrotation Yrotation Zrotation
					JOINT HairE1
					{
						OFFSET 0.289200 -7.171898 -1.284500
						CHANNELS 3 Xrotation Yrotation Zrotation
						End Site
						{
							OFFSET 0.000000 7.291756 0.000000
						}
					}
				}
				JOINT HairF
				{
					OFFSET -0.864800 17.612701 -11.592200
					CHANNELS 3 Xrotation Yrotation Zrotation
					JOINT HairF1
					{
						OFFSET 0.000000 -14.087097 -2.127501
						CHANNELS 3 Xrotation Yrotation Zrotation
						End Site
						{
							OFFSET 0.000000 14.246841 0.000000
						}
					}
				}
				JOINT HairG
				{
					OFFSET -8.087700 17.612701 -11.592200
					CHANNELS 3 Xrotation Yrotation Zrotation
					JOINT HairG1
					{
						OFFSET -0.293600 -6.081398 -0.910100
						CHANNELS 3 Xrotation Yrotation Zrotation
						End Site
						{
							OFFSET 0.000000 6.156120 0.000000
						}
					}
				}
			}
		}
	}
	JOINT Pouch
	{
		OFFSET 0.000000 4.394501 10.847300
		CHANNELS 3 Xrotation Yrotation Zrotation
		End Site
		{
			OFFSET 0.000000 21.880577 0.000000
		}
	}
	JOINT Bag
	{
		OFFSET -13.229000 4.813004 -0.593300
		CHANNELS 3 Xrotation Yrotation Zrotation
		End Site
		{
			OFFSET 0.000000 21.880577 0.000000
		}
	}
	JOINT OccupyGuyFacialAnim_Joint
	{
		OFFSET 1.000000 -70.206398 -1.655000
		CHANNELS 3 Xrotation Yrotation Zrotation
		End Site
		{
			OFFSET 0.000000 21.880577 0.000000
		}
	}
}
MOTION
Frames: 4
Frame Time: 0.033333
-0.035188 70.332878 0.122331 2.912481 -28.986172 1.187705 -0.000000 -0.000001 0.000000 -14.992161 18.711800 9.351243 17.127316 13.218465 -0.902409 -4.455557 -4.009220 -5.086097 0.000000 -0.000000 0.000000 0.000001 -0.000000 -0.000000 -5.462904 -1.937965 -9.248970 10.922109 9.736112 0.832987 -8.844635 -1.016681 7.074614 0.000000 -0.000001 0.000000 0.000000 0.000000 -0.000000 7.835985 -0.366790 -2.679080 1.099345 -0.882779 2.383831 1.108685 -0.590454 2.446369 -3.841417 18.019016 -6.496645 -6.333068 13.021467 0.301552 0.000000 0.000000 0.000000 0.000000 0.000000 0.000000 0.000000 0.000000 0.000000 0.000000 0.000000 0.000000 0.000000 0.000000 0.000000 0.000000 0.000000 0.000000 0.000000 0.000000 0.000000 0.000000 0.000000 0.000000 0.000000 0.000000 0.000000 -0.057266 -8.759479 -0.061024 -55.250780 0.329480 -41.449355 11.584362 -65.827314 13.005487 -50.191013 12.352934 4.610791 17.551602 -5.699214 -12.932294 10.850482 26.127714 8.644801 0.000001 0.000001 -0.000000 13.980883 1.201512 -55.004364 0.370075 1.152317 -65.441955 0.000003 0.000001 -0.000005 7.504748 1.174465 -63.778517 1.803711 1.460585 -64.567984 -0.000000 -0.000001 0.000002 8.574644 2.178330 -75.148965 -0.205545 1.007367 -57.855138 -0.000000 0.000000 -0.000002 10.030079 13.637034 -84.750264 0.881080 0.066529 -64.595332 -0.000000 0.000000 -0.000004 0.000001 0.000002 0.000001 4.849277 7.760133 5.560472 -0.933491 -2.176875 61.845676 11.299298 18.943472 -3.987561 -0.459228 6.620111 5.830250 15.788512 -2.734506 -17.205870 -2.198311 -31.113547 7.361245 -0.000001 -0.000003 0.000001 2.372270 -3.659095 8.487501 -2.148402 -2.470021 18.673408 -0.000000 0.000001 -0.000001 -1.976257 -5.707904 13.662356 0.283041 -5.105377 26.988101 0.000001 0.000000 -0.000001 -3.263584 -8.562142 11.769043 4.036042 -4.063324 33.263117 -0.000000 -0.000000 -0.000004 -6.474178 -11.348002 23.260699 10.719434 -2.558765 34.822999 -0.000000 0.000001 -0.000003 -0.000001 -0.000001 0.000003 0.000001 0.000001 -0.000000 0.000001 0.000001 -0.000001 0.000001 0.000001 -0.000000 0.000001 0.000001 -0.000000 0.000001 0.000001 -0.000000 0.000001 0.000001 -0.000000 0.000001 0.000001 -0.000000 0.000001 0.000001 -0.000000 0.000001 0.000001 -0.000000 0.000001 0.000001 -0.000000 -0.000000 -0.000001 0.000000 -0.000000 -0.000001 0.000000 -0.000000 -0.000001 0.000000 
-0.022313 70.279282 -0.083035 2.829878 -28.790204 1.223829 0.000000 0.000001 -0.000000 -15.530064 18.766454 9.749970 17.894778 12.925999 -1.422598 -4.695481 -4.006703 -4.737214 -0.000000 0.000000 -0.000000 -0.000001 0.000001 -0.000000 -6.142466 -1.731984 -9.252543 12.217865 9.526359 0.815430 -9.353012 -1.070485 6.939914 -0.000000 0.000001 -0.000000 -0.000001 0.000005 -0.000001 7.317494 -0.435433 -2.604713 1.207057 -0.899133 2.264234 1.215130 -0.634281 2.325826 -3.068067 17.480307 -5.734835 -6.477484 12.738082 0.421665 -0.000000 -0.000000 0.000000 -0.000000 -0.000000 0.000000 -0.000000 -0.000000 0.000000 -0.000000 -0.000000 0.000000 -0.000000 0.000000 0.000000 -0.000000 -0.000000 0.000000 -0.000000 0.000000 0.000000 -0.000000 -0.000000 0.000000 -0.000000 -0.000000 0.000000 -0.063423 -8.521152 -0.160542 -55.301556 0.055053 -41.380991 11.584621 -65.853624 12.952491 -49.925114 12.473324 4.711584 17.555927 -5.686463 -12.933545 10.839655 26.098416 8.643440 0.000000 0.000001 -0.000000 13.919491 0.784771 -54.871882 0.370146 1.152328 -65.444325 0.000001 0.000002 0.000000 7.599087 1.129851 -63.764337 1.805561 1.459666 -64.637912 0.000000 -0.000001 -0.000001 8.574586 2.178978 -75.144573 -0.205312 1.008022 -57.884528 -0.000002 -0.000001 -0.000000 9.951703 13.618805 -84.691463 0.876710 0.065186 -64.389839 0.000001 -0.000000 0.000001 -0.000001 -0.000003 0.000000 5.105882 7.507797 4.243808 -1.757186 1.595157 61.648010 11.785182 18.483025 -4.071473 -0.604282 6.655938 2.950732 15.435647 -2.008291 -16.811799 -2.419199 -30.597181 7.050242 0.000001 0.000000 0.000003 2.290984 -3.352078 7.912202 -2.125783 -2.423294 17.918359 -0.000001 -0.000000 0.000000 -2.018287 -5.425472 13.130106 0.235218 -5.024027 26.214604 -0.000000 0.000000 -0.000001 -3.259857 -8.399519 11.559908 3.927782 -4.038454 32.655117 -0.000000 -0.000000 -0.000001 -6.438533 -11.095005 22.856796 10.529946 -2.650746 34.211448 -0.000001 0.000001 -0.000003 0.000000 -0.000000 -0.000002 -0.000000 0.000003 -0.000000 0.000000 0.000000 0.000000 -0.000000 0.000003 -0.000001 -0.000000 0.000003 -0.000001 -0.000000 0.000003 -0.000000 0.000000 0.000000 0.000001 -0.000000 0.000003 -0.000001 -0.000000 0.000003 -0.000001 -0.000000 0.000003 -0.000000 0.000000 0.000000 0.000001 0.000000 0.000001 -0.000000 0.000000 0.000001 -0.000000 0.000000 0.000001 -0.000000 
0.012949 70.220093 -0.272896 2.773940 -28.548376 1.307382 -0.000000 -0.000000 -0.000000 -16.447428 18.818547 10.194055 19.373444 13.066210 -1.930676 -5.708836 -4.176644 -4.478422 -0.000000 -0.000000 -0.000000 -0.000000 0.000000 0.000001 -6.797731 -1.344557 -9.289418 13.497800 9.168666 0.785525 -9.861633 -1.207421 6.859948 0.000000 -0.000001 0.000000 -0.000000 -0.000001 -0.000000 6.847753 -0.496273 -2.559980 1.265524 -0.909556 2.111819 1.272503 -0.669129 2.171120 -2.255327 17.052624 -4.966680 -6.622290 12.568867 0.566241 0.000000 0.000000 -0.000000 0.000000 0.000000 -0.000000 0.000000 0.000000 0.000000 0.000000 0.000000 -0.000000 -0.000000 0.000000 -0.000000 0.000000 0.000000 -0.000000 -0.000000 0.000000 -0.000000 0.000000 0.000000 -0.000000 0.000000 0.000000 -0.000000 -0.073960 -8.248513 -0.325490 -55.433627 -0.282628 -41.064272 12.179663 -66.038729 13.319360 -48.960562 12.215106 4.612272 17.557426 -5.681961 -12.934007 10.826928 26.063795 8.641774 0.000000 0.000001 -0.000001 14.011260 1.391853 -55.086469 0.370377 1.152554 -65.461373 0.000001 0.000001 -0.000000 7.504055 1.157931 -63.917081 1.807065 1.458854 -64.691508 0.000000 0.000000 -0.000001 8.577013 2.156331 -75.295370 -0.204648 1.005363 -57.971299 -0.000000 0.000000 -0.000003 9.995835 13.619539 -84.723497 0.878292 0.065687 -64.465450 0.000000 -0.000001 -0.000001 -0.000003 0.000000 0.000002 5.318846 7.364902 2.952564 -2.423084 5.865385 61.634609 12.578592 17.879589 -4.259145 -0.865730 6.694547 -0.227711 15.050148 -1.215354 -16.384367 -2.655255 -30.033428 6.723988 -0.000001 0.000002 0.000004 2.210254 -3.014903 7.285104 -2.101106 -2.374023 17.099864 -0.000002 0.000001 0.000002 -2.065776 -5.118511 12.554183 0.186115 -4.936888 25.382982 -0.000001 -0.000000 0.000001 -3.255907 -8.228268 11.338193 3.813774 -4.009694 32.011635 -0.000001 -0.000001 -0.000001 -6.397143 -10.828315 22.428642 10.331384 -2.749765 33.563956 0.000000 0.000001 -0.000003 0.000000 0.000000 -0.000001 -0.000001 -0.000001 0.000000 -0.000000 0.000001 -0.000000 -0.000001 -0.000001 -0.000000 -0.000001 -0.000001 -0.000000 -0.000001 -0.000001 0.000000 -0.000000 0.000001 -0.000000 -0.000001 -0.000001 -0.000000 -0.000001 -0.000001 -0.000000 -0.000001 -0.000001 0.000000 -0.000000 0.000001 -0.000000 -0.000000 -0.000000 -0.000000 -0.000000 -0.000000 -0.000000 -0.000000 -0.000000 -0.000000 
0.093195 70.124619 -0.411251 2.756650 -28.288728 1.381827 -0.000000 -0.000000 0.000000 -17.778680 18.873273 10.625776 21.544877 13.976188 -2.288505 -7.099295 -4.641737 -4.197782 0.000000 -0.000000 -0.000000 0.000001 0.000000 -0.000000 -7.533267 -0.783305 -9.336499 14.976172 8.707233 0.748452 -10.499873 -1.418736 6.850883 -0.000000 0.000000 0.000000 -0.000000 0.000000 -0.000001 6.449673 -0.505127 -2.501462 1.289212 -0.899970 1.981498 1.294898 -0.675292 2.035485 -1.423427 16.661237 -4.198236 -6.767244 12.438702 0.718816 0.000000 0.000000 0.000000 0.000000 0.000000 0.000000 0.000000 0.000000 0.000000 0.000000 0.000000 0.000000 -0.000000 0.000000 0.000000 0.000000 0.000000 0.000000 -0.000000 0.000000 0.000000 0.000000 0.000000 0.000000 0.000000 0.000000 0.000000 -0.071850 -7.974669 -0.515116 -55.570901 -0.590988 -40.556454 12.887214 -66.601516 13.726717 -47.663775 12.231083 4.914460 17.556093 -5.686056 -12.933592 10.826601 26.062955 8.641741 0.000000 -0.000000 -0.000001 14.024068 0.943800 -55.201497 0.374466 1.156073 -65.729704 0.000001 0.000000 0.000003 7.631774 1.082772 -64.012649 1.812421 1.456095 -64.889242 -0.000001 0.000002 -0.000001 8.581396 2.156182 -75.296579 -0.204281 1.002271 -58.017396 0.000002 0.000001 0.000002 9.960120 13.619959 -84.697993 0.877276 0.065349 -64.417358 0.000000 -0.000001 -0.000006 0.000002 -0.000002 -0.000000 5.486396 7.341045 1.685832 -2.523703 10.395242 61.505150 13.541840 17.837577 -4.730839 -1.185533 6.612098 -3.524382 14.634177 -0.368378 -15.927764 -2.900969 -29.429513 6.386719 -0.000001 -0.000002 0.000002 2.132277 -2.652350 6.615307 -2.074548 -2.323129 16.228328 0.000001 -0.000001 0.000004 -2.113296 -4.790830 11.941870 0.136373 -4.844634 24.502853 0.000000 0.000000 0.000003 -3.254075 -8.049620 11.105423 3.695229 -3.977003 31.337488 -0.000001 -0.000001 -0.000003 -6.349771 -10.550270 21.979747 10.124640 -2.853743 32.884987 0.000000 0.000001 -0.000001 0.000000 -0.000000 0.000001 -0.000000 0.000000 -0.000000 -0.000000 -0.000001 0.000000 -0.000000 0.000000 -0.000000 -0.000000 0.000000 -0.000000 -0.000000 0.000000 -0.000000 -0.000000 -0.000001 0.000000 -0.000000 0.000000 -0.000000 -0.000000 0.000000 -0.000000 -0.000000 0.000000 -0.000000 -0.000000 -0.000001 0.000000 -0.000000 -0.000000 0.000000 -0.000000 -0.000000 0.000000 -0.000000 -0.000000 0.000000 
